<svg xmlns="http://www.w3.org/2000/svg" viewBox="0 0 800 600"><defs><style>.cls-1,.cls-2,.cls-3{fill:none;stroke:#000;stroke-miterlimit:10;}.cls-1{stroke-width:3px;}.cls-2{stroke-width:6px;}.cls-3{stroke-width:2px;}</style></defs><title>calgaryspelling_logo-02</title><g id="Layer_2" data-name="Layer 2"><path d="M385.1,98.74a15.76,15.76,0,0,0,2.35,4c-7.28,5.94-11.45,16.64-11.45,26.2l1.5,104.47L373,124.87C373,115.52,377.82,105.13,385.1,98.74Z"/><path d="M422.5,233.36,424,128.89c0-9.56-4.17-20.26-11.45-26.2a15.76,15.76,0,0,0,2.35-4c7.28,6.39,12.1,16.78,12.1,26.13Z"/><path d="M239.77,235.26l93.63,51.07-.45.26-98.16-50.74c-12.86-7.43-21.9-26.67-14.47-39.53s28.61-14.66,41.47-7.24l73.52,47.64-71.54-43c-12.27-7.09-31.26-7.49-38.69,5.37S227.5,228.17,239.77,235.26Z"/><path d="M188.81,307.92l-2.18-1.27a8.76,8.76,0,0,1-3.38-3.62,11.74,11.74,0,0,1-1.2-5.43V290a11.73,11.73,0,0,1,1.2-5.42,8.67,8.67,0,0,1,3.38-3.63,9.77,9.77,0,0,1,5.06-1.29,9.48,9.48,0,0,1,4.38,1,9.18,9.18,0,0,1,3.34,2.89,10.74,10.74,0,0,1,1.82,4.32h-4a6.29,6.29,0,0,0-1.21-2.32,6,6,0,0,0-2-1.57,5.48,5.48,0,0,0-2.36-.55,5.34,5.34,0,0,0-3,.82,5.48,5.48,0,0,0-2,2.29A7.92,7.92,0,0,0,186,290v7.6a7.9,7.9,0,0,0,.71,3.43,5.36,5.36,0,0,0,2,2.29,5.42,5.42,0,0,0,3,.81,5.74,5.74,0,0,0,2.37-.51,5.49,5.49,0,0,0,2-1.53,6.08,6.08,0,0,0,1.21-2.39h4A10.88,10.88,0,0,1,199.4,304a9.36,9.36,0,0,1-3.35,2.88,9.46,9.46,0,0,1-4.36,1Z"/><path d="M252.07,307.92l-1.79-.38a14.15,14.15,0,0,1-3.34-1.14,14,14,0,0,1-2.9-1.91l2.42-3a10.83,10.83,0,0,0,3.48,2.06,12.05,12.05,0,0,0,4.13.69,8.35,8.35,0,0,0,4.67-1.12A3.58,3.58,0,0,0,260.4,300v0a3.28,3.28,0,0,0-.76-2.29,4.43,4.43,0,0,0-1.94-1.26,22.28,22.28,0,0,0-3.07-.75.27.27,0,0,0-.13,0l-.12,0-.29-.06a30.08,30.08,0,0,1-4.52-1.07,6.4,6.4,0,0,1-3-2.19,7.21,7.21,0,0,1-1.24-4.53v0a8.07,8.07,0,0,1,1.15-4.38,7.24,7.24,0,0,1,3.37-2.78,13.44,13.44,0,0,1,5.31-.95,13,13,0,0,1,2.92.33,13.78,13.78,0,0,1,2.84,1,15.88,15.88,0,0,1,2.75,1.61l-2.21,3.08a13,13,0,0,0-3.15-1.74,9,9,0,0,0-3.15-.58,7.49,7.49,0,0,0-4.41,1.13,3.73,3.73,0,0,0-1.57,3.21v0a3.07,3.07,0,0,0,.81,2.25,4.94,4.94,0,0,0,2,1.21,28.21,28.21,0,0,0,3.36.8l.14,0,.14,0,.21,0,.21,0a22.57,22.57,0,0,1,4.2,1.22,6.52,6.52,0,0,1,2.82,2.27,7.27,7.27,0,0,1,1.13,4.3v0a7.65,7.65,0,0,1-1.2,4.34,7.5,7.5,0,0,1-3.47,2.74,14.34,14.34,0,0,1-5.5.94Z"/><path d="M543.41,307.92l-1.79-.38a14.15,14.15,0,0,1-3.34-1.14,14,14,0,0,1-2.9-1.91l2.41-3a11,11,0,0,0,3.49,2.06,12.05,12.05,0,0,0,4.13.69,8.35,8.35,0,0,0,4.67-1.12,3.58,3.58,0,0,0,1.65-3.15v0a3.33,3.33,0,0,0-.75-2.29,4.43,4.43,0,0,0-1.94-1.26,22.1,22.1,0,0,0-3.08-.75.23.23,0,0,0-.12,0l-.12,0-.29-.06a30.08,30.08,0,0,1-4.52-1.07,6.35,6.35,0,0,1-3-2.19,7.21,7.21,0,0,1-1.24-4.53v0a8,8,0,0,1,1.15-4.38,7.26,7.26,0,0,1,3.36-2.78,13.53,13.53,0,0,1,5.32-.95,13,13,0,0,1,2.92.33,14,14,0,0,1,2.84,1,15.88,15.88,0,0,1,2.75,1.61l-2.21,3.08a13,13,0,0,0-3.15-1.74,9,9,0,0,0-3.15-.58,7.49,7.49,0,0,0-4.41,1.13,3.73,3.73,0,0,0-1.57,3.21v0a3.07,3.07,0,0,0,.81,2.25,4.94,4.94,0,0,0,2,1.21,28.21,28.21,0,0,0,3.36.8.35.35,0,0,0,.14,0l.14,0,.21,0,.21,0a22.57,22.57,0,0,1,4.2,1.22,6.57,6.57,0,0,1,2.82,2.27,7.27,7.27,0,0,1,1.13,4.3v0a7.65,7.65,0,0,1-1.2,4.34,7.5,7.5,0,0,1-3.47,2.74,14.34,14.34,0,0,1-5.5.94Z"/><path d="M606.29,307.92l-2.18-1.27a8.76,8.76,0,0,1-3.38-3.62,11.74,11.74,0,0,1-1.2-5.43V290a11.73,11.73,0,0,1,1.2-5.42,8.67,8.67,0,0,1,3.38-3.63,9.77,9.77,0,0,1,5.06-1.29,9.54,9.54,0,0,1,4.38,1,9.18,9.18,0,0,1,3.34,2.89,10.74,10.74,0,0,1,1.82,4.32h-4a6.29,6.29,0,0,0-1.21-2.32,6.13,6.13,0,0,0-2-1.57,5.48,5.48,0,0,0-2.36-.55,5.34,5.34,0,0,0-3,.82,5.48,5.48,0,0,0-2,2.29,7.92,7.92,0,0,0-.71,3.44v7.6a7.9,7.9,0,0,0,.71,3.43,5.36,5.36,0,0,0,2,2.29,5.42,5.42,0,0,0,3,.81,5.74,5.74,0,0,0,2.37-.51,5.57,5.57,0,0,0,2-1.53,6.08,6.08,0,0,0,1.21-2.39h4a10.88,10.88,0,0,1-1.83,4.32,9.36,9.36,0,0,1-3.35,2.88,9.46,9.46,0,0,1-4.36,1Z"/><path d="M565.21,235.85l-98.13,50.73-.46-.26,93.61-51.06c12.27-7.09,22.11-23.34,14.69-36.2s-26.42-12.46-38.69-5.37l-71.54,43,73.52-47.64c12.86-7.42,34-5.62,41.47,7.24S578.07,228.42,565.21,235.85Z"/><path d="M373,475.24c0,14.85,12.15,32.3,27,32.3s27-17.45,27-32.3L422.51,346,424,471.22c0,14.17-9.15,30.82-24,30.82s-24-16.65-24-30.82L377.51,346Z"/><path class="cls-1" d="M354.3,323.29s-5.39,13-5.4,32c0,20.81-8,26.59-14.64,29.84-20.29,9.89-82.37-33.22-66.8-49.57,19.14-20.08,45.92-37.61,65.49-49l.45-.26c14.64-8.5,25.13-13.52,25.13-13.52"/><path class="cls-1" d="M445.75,323.29s5.39,13,5.4,32c0,20.81,8,26.59,14.64,29.84,20.29,9.89,82.37-33.22,66.79-49.57-19.14-20.09-45.93-37.63-65.5-49l-.46-.26c-14.63-8.5-25.1-13.51-25.1-13.51"/><path class="cls-2" d="M449.38,299.68v.38A49.48,49.48,0,0,1,448,311.68c-.29,1.2-.63,2.39-1,3.56a48.3,48.3,0,0,1-3.64,8.44,49.39,49.39,0,0,1-86.72,0,48.3,48.3,0,0,1-3.64-8.44c-.38-1.17-.72-2.36-1-3.56a49.48,49.48,0,0,1-1.37-11.62v-.38a49,49,0,0,1,1.57-12,49.59,49.59,0,0,1,1.65-5.18,49.56,49.56,0,0,1,12.78-18.82c1.12-1,2.28-2,3.49-2.92a49.37,49.37,0,0,1,59.79,0q1.82,1.38,3.48,2.92a49.28,49.28,0,0,1,16,36Z"/><path class="cls-3" d="M263.78,192s61.86,38.44,71.53,44.71c1.29.83,11.18,6.66,20.59,13.31,5.09,3.6,9.62,7,13.65,10.27C394.21,280.08,400,292.47,400,292.47"/><path class="cls-3" d="M536.22,192s-61.86,38.44-71.52,44.71c-1.29.83-11.19,6.66-20.59,13.31-5.09,3.6-9.62,7-13.65,10.27C405.8,280.08,400,292.47,400,292.47"/><path class="cls-1" d="M369.55,260.31q2.15,1.72,4.1,3.37c5.3,4.45,9.6,8.47,13.05,12,2.16,2.19,4,4.19,5.53,6,2,2.37,3.6,4.39,4.76,6a35.36,35.36,0,0,1,3,4.79,35.36,35.36,0,0,1,3-4.79c1.16-1.63,2.72-3.65,4.76-6,1.55-1.79,3.38-3.79,5.53-6,3.46-3.53,7.76-7.55,13.05-12q2-1.65,4.11-3.37"/><path class="cls-1" d="M369.55,258.88a30.65,30.65,0,0,1,60.9,0"/><path class="cls-3" d="M394.11,233.36s-1.76-7.5-3.62-11.06c-2.61-5-8.83-8.33-8.83-8.33"/><path class="cls-3" d="M405.89,233.36s1.76-7.5,3.62-11.06c2.61-5,8.83-8.33,8.83-8.33"/><circle cx="220.22" cy="403.79" r="12.03"/><path d="M581.79,387.76a17,17,0,0,0-2.15-.16,16.55,16.55,0,0,0-2.46.21c-1.53-9.25-8.68-18.18-16.95-22.95l-22.06-12.21c.33-.58.63-1.16.9-1.73l26.14,13.35C573.3,368.93,579.87,378.27,581.79,387.76Z"/><path d="M446.14,351c0,.19,0,.37,0,.56l-17.47-11.29Z"/><path d="M566.93,413.61c-9.19,3.11-20.61,2.1-28.72-2.58l-39.28-25.4,1.92-1,35.38,21.78c8.29,4.79,19.63,6.51,28.41,3.18A15.91,15.91,0,0,0,566.93,413.61Z"/><circle cx="579.64" cy="403.72" r="12.03"/><circle cx="400.01" cy="92.58" r="12.03"/><line class="cls-3" x1="358.53" y1="272.81" x2="315.33" y2="384.63"/><line class="cls-3" x1="441.47" y1="272.81" x2="484.67" y2="384.63"/><path class="cls-3" d="M373,341.41s-6.09,4.48-5.59,9.23,3.88,11.25,3.88,11.25"/><path class="cls-3" d="M427,341.41s6.09,4.48,5.59,9.23-3.88,11.25-3.88,11.25"/><path class="cls-3" d="M439.35,269.47s.14-7.34,4.64-10.59A24.6,24.6,0,0,1,454.16,255"/><path class="cls-3" d="M360.65,269.47s-.14-7.34-4.64-10.59A24.6,24.6,0,0,0,345.84,255"/><path d="M386.7,275.68H357.06a49.22,49.22,0,0,1,9.56-12h7C379,268.13,383.25,272.15,386.7,275.68Z"/><path d="M442.94,275.68H413.3c3.46-3.53,7.76-7.55,13.05-12h7A49.22,49.22,0,0,1,442.94,275.68Z"/><path d="M449.38,299.68H350.62a49,49,0,0,1,1.57-12H397a35.36,35.36,0,0,1,3,4.79,35.36,35.36,0,0,1,3-4.79h44.8A49,49,0,0,1,449.38,299.68Z"/><path d="M448,311.68c-.29,1.2-.63,2.39-1,3.56a48.3,48.3,0,0,1-3.64,8.44H356.64a48.3,48.3,0,0,1-3.64-8.44c-.38-1.17-.72-2.36-1-3.56Z"/><path d="M434.18,335.68a49.23,49.23,0,0,1-21.07,12H386.89a49.23,49.23,0,0,1-21.07-12Z"/><path d="M220.22,387.67a17.08,17.08,0,0,1,2.59.22c1.49-9.28,8.66-18.25,17-23l22.1-12.24c-.32-.58-.63-1.16-.9-1.73l-26.18,13.38c-8.1,4.67-14.68,14-16.59,23.54A15.12,15.12,0,0,1,220.22,387.67Z"/><path d="M263.77,406.42c-8.32,4.8-19.71,6.53-28.51,3.14a15.71,15.71,0,0,1-2.26,4c9.21,3.15,20.66,2.14,28.79-2.55l39.3-25.41-1.92-1Z"/></g></svg>